/* XPM */
static char *_3abd22fafde400bad06c2f924eaae51[] = {
/* columns rows colors chars-per-pixel */
"64 64 3 1 ",
"  c #973724",
". c #FF5722",
"X c #C67639",
/* pixels */
"                                                                ",
"                                                                ",
"                                                                ",
"                                                                ",
"                                                                ",
"                                                                ",
"                                                                ",
"                                                                ",
"                XXXXXXXX                                        ",
"                XXXXXXXX                                        ",
"                XXXXXXXX                                        ",
"                XXXXXXXX                                        ",
"                    XXXX............                            ",
"                    XXXX............                            ",
"                    XXXX............                            ",
"                    XXXX............                            ",
"                                                                ",
"                                                                ",
"                                                                ",
"                                                                ",
"                                                    XXXX        ",
"                                                    XXXX        ",
"                                                    XXXX        ",
"                                                    XXXX        ",
"                                            ........XXXXXXXX    ",
"                                            ........XXXXXXXX    ",
"                                            ........XXXXXXXX    ",
"                                            ........XXXXXXXX    ",
"                                                                ",
"                                                                ",
"                                                                ",
"                                                                ",
"                                                                ",
"                                                                ",
"                                                                ",
"                                                                ",
"            ................                                    ",
"            ................                                    ",
"            ................                                    ",
"            ................                                    ",
"            XXXXXXXX....................                        ",
"            XXXXXXXX....................                        ",
"            XXXXXXXX....................                        ",
"            XXXXXXXX....................                        ",
"                                                                ",
"                                                                ",
"                                                                ",
"                                                                ",
"                                                                ",
"                                                                ",
"                                                                ",
"                                                                ",
"                                ............XXXX                ",
"                                ............XXXX                ",
"                                ............XXXX                ",
"                                ............XXXX                ",
"                                                                ",
"                                                                ",
"                                                                ",
"                                                                ",
"                                                                ",
"                                                                ",
"                                                                ",
"                                                                "
};
