/* XPM */
static char *c5a311badec741d69cb91fcb3877a27f[] = {
/* columns rows colors chars-per-pixel */
"64 64 15 1 ",
"  c #002B00",
". c #2C251B",
"X c #393939",
"o c #633E0D",
"O c #4E342E",
"+ c #005300",
"@ c #973724",
"# c #FF5722",
"$ c #C67639",
"% c #837052",
"& c #02A600",
"* c #00DF00",
"= c yellow",
"- c #A99576",
"; c white",
/* pixels */
"@@@@@@@@@@@@@@@@@@@@@@@@@@@@@@@@@@@@@@@@@@@@@@@@@@@@@@@@@@@@@@@@",
"@@@@@@@@@@@@@@@@@@@@@@@@@@@@@@@@@@@@@@@@@@@@@@@@@@@@@@@@@@@@@@@@",
"@@@@@@@@@@@@@@@@@@@@@@@@@@@@@@@@@@@@@@@@@@@@@@@@@@@@@@@@@@@@@@@@",
"@@@@@@@@@@@@@@@@@@@@@@@@@@@@@@@@@@@@@@@@@@@@@@@@@@@@@@@@@@@@@@@@",
"@@@@@@@@@@@@@@@@@@@@@@@@@@@@++++++++++++++++@@@@@@@@@@@@@@@@@@@@",
"@@@@@@@@@@@@@@@@@@@@@@@@@@@@++++++++++++++++@@@@@@@@@@@@@@@@@@@@",
"@@@@@@@@@@@@@@@@@@@@@@@@@@@@++++++++++++++++@@@@@@@@@@@@@@@@@@@@",
"@@@@@@@@@@@@@@@@@@@@@@@@@@@@++++++++++++++++@@@@@@@@@@@@@@@@@@@@",
"@@@@@@@@@@@@@@@@@@@@@@@@++++++++********&&&&++++@@@@@@@@@@@@@@@@",
"@@@@@@@@@@@@@@@@@@@@@@@@++++++++********&&&&++++@@@@@@@@@@@@@@@@",
"@@@@@@@@@@@@@@@@@@@@@@@@++++++++********&&&&++++@@@@@@@@@@@@@@@@",
"@@@@@@@@@@@@@@@@@@@@@@@@++++++++********&&&&++++@@@@@@@@@@@@@@@@",
"@@@@@@@@@@@@@@@@@@@@@@@@    &&&&************++++    @@@@@@@@@@@@",
"@@@@@@@@@@@@@@@@@@@@@@@@    &&&&************++++    @@@@@@@@@@@@",
"@@@@@@@@@@@@@@@@@@@@@@@@    &&&&************++++    @@@@@@@@@@@@",
"@@@@@@@@@@@@@@@@@@@@@@@@    &&&&************++++    @@@@@@@@@@@@",
"@@@@@@@@@@@@    ++++&&&&&&&&&&&&&&&&++++++++&&&&    @@@@@@@@@@@@",
"@@@@@@@@@@@@    ++++&&&&&&&&&&&&&&&&++++++++&&&&    @@@@@@@@@@@@",
"@@@@@@@@@@@@    ++++&&&&&&&&&&&&&&&&++++++++&&&&    @@@@@@@@@@@@",
"@@@@@@@@@@@@    ++++&&&&&&&&&&&&&&&&++++++++&&&&    @@@@@@@@@@@@",
"@@@@@@@@$$$$@@@@        ++++****&&&&----    ++++    @@@@@@@@@@@@",
"@@@@@@@@$$$$@@@@        ++++****&&&&----    ++++    @@@@@@@@@@@@",
"@@@@@@@@$$$$@@@@        ++++****&&&&----    ++++    @@@@@@@@@@@@",
"@@@@@@@@$$$$@@@@        ++++****&&&&----    ++++    @@@@@@@@@@@@",
"@@@@$$$$$$$$########@@@@    &&&&****;;;;XXXX&&&&&&&&    @@@@@@@@",
"@@@@$$$$$$$$########@@@@    &&&&****;;;;XXXX&&&&&&&&    @@@@@@@@",
"@@@@$$$$$$$$########@@@@    &&&&****;;;;XXXX&&&&&&&&    @@@@@@@@",
"@@@@$$$$$$$$########@@@@    &&&&****;;;;XXXX&&&&&&&&    @@@@@@@@",
"@@@@@@@@@@@@@@@@@@@@        ++++********&&&&&&&&        @@@@@@@@",
"@@@@@@@@@@@@@@@@@@@@        ++++********&&&&&&&&        @@@@@@@@",
"@@@@@@@@@@@@@@@@@@@@        ++++********&&&&&&&&        @@@@@@@@",
"@@@@@@@@@@@@@@@@@@@@        ++++********&&&&&&&&        @@@@@@@@",
"@@@@@@@@@@@@@@@@    ....----....&&&&****&&&&    @@@@@@@@@@@@@@@@",
"@@@@@@@@@@@@@@@@    ....----....&&&&****&&&&    @@@@@@@@@@@@@@@@",
"@@@@@@@@@@@@@@@@    ....----....&&&&****&&&&    @@@@@@@@@@@@@@@@",
"@@@@@@@@@@@@@@@@    ....----....&&&&****&&&&    @@@@@@@@@@@@@@@@",
"@@@@@@@@@@@@@@@@    ++++....%%%%                ####@@@@@@@@@@@@",
"@@@@@@@@@@@@@@@@    ++++....%%%%                ####@@@@@@@@@@@@",
"@@@@@@@@@@@@@@@@    ++++....%%%%                ####@@@@@@@@@@@@",
"@@@@@@@@@@@@@@@@    ++++....%%%%                ####@@@@@@@@@@@@",
"@@@@@@@@@@@@    ********    ....%%%%====    ++++    @@@@@@@@@@@@",
"@@@@@@@@@@@@    ********    ....%%%%====    ++++    @@@@@@@@@@@@",
"@@@@@@@@@@@@    ********    ....%%%%====    ++++    @@@@@@@@@@@@",
"@@@@@@@@@@@@    ********    ....%%%%====    ++++    @@@@@@@@@@@@",
"@@@@@@@@@@@@$$$$&&&&****    ....%%%%oooo    ++++    $$$$@@@@@@@@",
"@@@@@@@@@@@@$$$$&&&&****    ....%%%%oooo    ++++    $$$$@@@@@@@@",
"@@@@@@@@@@@@$$$$&&&&****    ....%%%%oooo    ++++    $$$$@@@@@@@@",
"@@@@@@@@@@@@$$$$&&&&****    ....%%%%oooo    ++++    $$$$@@@@@@@@",
"@@@@@@@@@@@@OOOO$$$$$$$$    %%%%----$$$$$$$$$$$$$$$$@@@@@@@@@@@@",
"@@@@@@@@@@@@OOOO$$$$$$$$    %%%%----$$$$$$$$$$$$$$$$@@@@@@@@@@@@",
"@@@@@@@@@@@@OOOO$$$$$$$$    %%%%----$$$$$$$$$$$$$$$$@@@@@@@@@@@@",
"@@@@@@@@@@@@OOOO$$$$$$$$    %%%%----$$$$$$$$$$$$$$$$@@@@@@@@@@@@",
"@@@@@@@@@@@@@@@@OOOOOOOO$$$$$$$$$$$$$$$$OOOOOOOO@@@@@@@@@@@@@@@@",
"@@@@@@@@@@@@@@@@OOOOOOOO$$$$$$$$$$$$$$$$OOOOOOOO@@@@@@@@@@@@@@@@",
"@@@@@@@@@@@@@@@@OOOOOOOO$$$$$$$$$$$$$$$$OOOOOOOO@@@@@@@@@@@@@@@@",
"@@@@@@@@@@@@@@@@OOOOOOOO$$$$$$$$$$$$$$$$OOOOOOOO@@@@@@@@@@@@@@@@",
"@@@@@@@@@@@@@@@@@@@@@@@@OOOOOOOOOOOO@@@@@@@@@@@@@@@@@@@@@@@@@@@@",
"@@@@@@@@@@@@@@@@@@@@@@@@OOOOOOOOOOOO@@@@@@@@@@@@@@@@@@@@@@@@@@@@",
"@@@@@@@@@@@@@@@@@@@@@@@@OOOOOOOOOOOO@@@@@@@@@@@@@@@@@@@@@@@@@@@@",
"@@@@@@@@@@@@@@@@@@@@@@@@OOOOOOOOOOOO@@@@@@@@@@@@@@@@@@@@@@@@@@@@",
"@@@@@@@@@@@@@@@@@@@@@@@@@@@@@@@@@@@@@@@@@@@@@@@@@@@@@@@@@@@@@@@@",
"@@@@@@@@@@@@@@@@@@@@@@@@@@@@@@@@@@@@@@@@@@@@@@@@@@@@@@@@@@@@@@@@",
"@@@@@@@@@@@@@@@@@@@@@@@@@@@@@@@@@@@@@@@@@@@@@@@@@@@@@@@@@@@@@@@@",
"@@@@@@@@@@@@@@@@@@@@@@@@@@@@@@@@@@@@@@@@@@@@@@@@@@@@@@@@@@@@@@@@"
};
