/* XPM */
static char *eedc0748b5a1454e9df67feb21231097[] = {
/* columns rows colors chars-per-pixel */
"64 64 6 1 ",
"  c #4E342E",
". c gray26",
"X c #973724",
"o c #FF5722",
"O c #C67639",
"+ c #BCAAA4",
/* pixels */
"XXXXXXXXXXXXXXXXXXXXXXXXXXXXXXXXXXXXXXXXXXXXXXXXXXXXXXXXXXXXXXXX",
"XXXXXXXXXXXXXXXXXXXXXXXXXXXXXXXXXXXXXXXXXXXXXXXXXXXXXXXXXXXXXXXX",
"XXXXXXXXXXXXXXXXXXXXXXXXXXXXXXXXXXXXXXXXXXXXXXXXXXXXXXXXXXXXXXXX",
"XXXXXXXXXXXXXXXXXXXXXXXXXXXXXXXXXXXXXXXXXXXXXXXXXXXXXXXXXXXXXXXX",
"XXXXXXXXXXXXXXXXXXXXXXXXXXXXXXXXXXXXXXXXXXXXXXXXXXXXXXXXXXXXXXXX",
"XXXXXXXXXXXXXXXXXXXXXXXXXXXXXXXXXXXXXXXXXXXXXXXXXXXXXXXXXXXXXXXX",
"XXXXXXXXXXXXXXXXXXXXXXXXXXXXXXXXXXXXXXXXXXXXXXXXXXXXXXXXXXXXXXXX",
"XXXXXXXXXXXXXXXXXXXXXXXXXXXXXXXXXXXXXXXXXXXXXXXXXXXXXXXXXXXXXXXX",
"XXXXXXXXXXXXXXXXOOOOOOOOXXXXXXXXXXXXXXXX....XXXX....XXXXXXXXXXXX",
"XXXXXXXXXXXXXXXXOOOOOOOOXXXXXXXXXXXXXXXX....XXXX....XXXXXXXXXXXX",
"XXXXXXXXXXXXXXXXOOOOOOOOXXXXXXXXXXXXXXXX....XXXX....XXXXXXXXXXXX",
"XXXXXXXXXXXXXXXXOOOOOOOOXXXXXXXXXXXXXXXX....XXXX....XXXXXXXXXXXX",
"XXXXXXXXXXXXXXXXXXXXOOOOoooooooooooo....++++....++++....XXXXXXXX",
"XXXXXXXXXXXXXXXXXXXXOOOOoooooooooooo....++++....++++....XXXXXXXX",
"XXXXXXXXXXXXXXXXXXXXOOOOoooooooooooo....++++....++++....XXXXXXXX",
"XXXXXXXXXXXXXXXXXXXXOOOOoooooooooooo....++++....++++....XXXXXXXX",
"XXXXXXXXXXXXXXXXXXXXXXXXXXXXXXXXXXXXXXXX....++++....XXXXXXXXXXXX",
"XXXXXXXXXXXXXXXXXXXXXXXXXXXXXXXXXXXXXXXX....++++....XXXXXXXXXXXX",
"XXXXXXXXXXXXXXXXXXXXXXXXXXXXXXXXXXXXXXXX....++++....XXXXXXXXXXXX",
"XXXXXXXXXXXXXXXXXXXXXXXXXXXXXXXXXXXXXXXX....++++....XXXXXXXXXXXX",
"XXXXXXXXXXXXXXXXXXXXXXXXXXXXXXXXXXXX....++++....++++....XXXXXXXX",
"XXXXXXXXXXXXXXXXXXXXXXXXXXXXXXXXXXXX....++++....++++....XXXXXXXX",
"XXXXXXXXXXXXXXXXXXXXXXXXXXXXXXXXXXXX....++++....++++....XXXXXXXX",
"XXXXXXXXXXXXXXXXXXXXXXXXXXXXXXXXXXXX....++++....++++....XXXXXXXX",
"XXXXXXXXXXXXXXXXXXXXXXXXXXXXXXXX....++++....oooo....OOOOOOOOXXXX",
"XXXXXXXXXXXXXXXXXXXXXXXXXXXXXXXX....++++....oooo....OOOOOOOOXXXX",
"XXXXXXXXXXXXXXXXXXXXXXXXXXXXXXXX....++++....oooo....OOOOOOOOXXXX",
"XXXXXXXXXXXXXXXXXXXXXXXXXXXXXXXX....++++....oooo....OOOOOOOOXXXX",
"XXXXXXXXXXXXXXXXXXXXXXXXXXXX....++++....XXXXXXXXXXXXXXXXXXXXXXXX",
"XXXXXXXXXXXXXXXXXXXXXXXXXXXX....++++....XXXXXXXXXXXXXXXXXXXXXXXX",
"XXXXXXXXXXXXXXXXXXXXXXXXXXXX....++++....XXXXXXXXXXXXXXXXXXXXXXXX",
"XXXXXXXXXXXXXXXXXXXXXXXXXXXX....++++....XXXXXXXXXXXXXXXXXXXXXXXX",
"XXXXXXXXXXXXXXXXXXXXXXXX....++++....XXXXXXXXXXXXXXXXXXXXXXXXXXXX",
"XXXXXXXXXXXXXXXXXXXXXXXX....++++....XXXXXXXXXXXXXXXXXXXXXXXXXXXX",
"XXXXXXXXXXXXXXXXXXXXXXXX....++++....XXXXXXXXXXXXXXXXXXXXXXXXXXXX",
"XXXXXXXXXXXXXXXXXXXXXXXX....++++....XXXXXXXXXXXXXXXXXXXXXXXXXXXX",
"XXXXXXXXXXXX....XXXX....++++....XXXXXXXXXXXXXXXXXXXXXXXXXXXXXXXX",
"XXXXXXXXXXXX....XXXX....++++....XXXXXXXXXXXXXXXXXXXXXXXXXXXXXXXX",
"XXXXXXXXXXXX....XXXX....++++....XXXXXXXXXXXXXXXXXXXXXXXXXXXXXXXX",
"XXXXXXXXXXXX....XXXX....++++....XXXXXXXXXXXXXXXXXXXXXXXXXXXXXXXX",
"XXXXOOOO....++++....OOOOOOOOOOOOooooooooXXXXXXXXXXXXXXXXXXXXXXXX",
"XXXXOOOO....++++....OOOOOOOOOOOOooooooooXXXXXXXXXXXXXXXXXXXXXXXX",
"XXXXOOOO....++++....OOOOOOOOOOOOooooooooXXXXXXXXXXXXXXXXXXXXXXXX",
"XXXXOOOO....++++....OOOOOOOOOOOOooooooooXXXXXXXXXXXXXXXXXXXXXXXX",
"XXXX    OOOOOOOOOOOO            XXXXXXXXXXXXXXXXXXXXXXXXXXXXXXXX",
"XXXX    OOOOOOOOOOOO            XXXXXXXXXXXXXXXXXXXXXXXXXXXXXXXX",
"XXXX    OOOOOOOOOOOO            XXXXXXXXXXXXXXXXXXXXXXXXXXXXXXXX",
"XXXX    OOOOOOOOOOOO            XXXXXXXXXXXXXXXXXXXXXXXXXXXXXXXX",
"XXXXXXXX        XXXXXXXXXXXXXXXXXXXXXXXXOOOOOOOOXXXXXXXXXXXXXXXX",
"XXXXXXXX        XXXXXXXXXXXXXXXXXXXXXXXXOOOOOOOOXXXXXXXXXXXXXXXX",
"XXXXXXXX        XXXXXXXXXXXXXXXXXXXXXXXXOOOOOOOOXXXXXXXXXXXXXXXX",
"XXXXXXXX        XXXXXXXXXXXXXXXXXXXXXXXXOOOOOOOOXXXXXXXXXXXXXXXX",
"XXXXXXXXXXXXXXXXXXXXXXXXXXXXXXXXXXXXXXXXXXXXXXXXXXXXXXXXXXXXXXXX",
"XXXXXXXXXXXXXXXXXXXXXXXXXXXXXXXXXXXXXXXXXXXXXXXXXXXXXXXXXXXXXXXX",
"XXXXXXXXXXXXXXXXXXXXXXXXXXXXXXXXXXXXXXXXXXXXXXXXXXXXXXXXXXXXXXXX",
"XXXXXXXXXXXXXXXXXXXXXXXXXXXXXXXXXXXXXXXXXXXXXXXXXXXXXXXXXXXXXXXX",
"XXXXXXXXXXXXXXXXXXXXXXXXXXXXXXXXXXXXXXXXXXXXXXXXXXXXXXXXXXXXXXXX",
"XXXXXXXXXXXXXXXXXXXXXXXXXXXXXXXXXXXXXXXXXXXXXXXXXXXXXXXXXXXXXXXX",
"XXXXXXXXXXXXXXXXXXXXXXXXXXXXXXXXXXXXXXXXXXXXXXXXXXXXXXXXXXXXXXXX",
"XXXXXXXXXXXXXXXXXXXXXXXXXXXXXXXXXXXXXXXXXXXXXXXXXXXXXXXXXXXXXXXX",
"XXXXXXXXXXXXXXXXXXXXXXXXXXXXXXXXXXXXXXXXXXXXXXXXXXXXXXXXXXXXXXXX",
"XXXXXXXXXXXXXXXXXXXXXXXXXXXXXXXXXXXXXXXXXXXXXXXXXXXXXXXXXXXXXXXX",
"XXXXXXXXXXXXXXXXXXXXXXXXXXXXXXXXXXXXXXXXXXXXXXXXXXXXXXXXXXXXXXXX",
"XXXXXXXXXXXXXXXXXXXXXXXXXXXXXXXXXXXXXXXXXXXXXXXXXXXXXXXXXXXXXXXX"
};
