/* XPM */
static char *_3ed533d1aae4fc0a32c42fb376230879EyQp49WK0vNci0m[] = {
/* columns rows colors chars-per-pixel */
"16 16 10 1 ",
"  c gray13",
". c #7D2711",
"X c #55403C",
"o c #76514A",
"O c #97371F",
"+ c #B93212",
"@ c #973724",
"# c #A83F26",
"$ c #AB4229",
"% c #905748",
/* pixels */
"@@@@@@@@@@@@@@@@",
"@@@@@@@@@@@@@@@@",
"@@@@@@@@@@@@@@@@",
"@@@@@@@@@@@@@@@@",
"@@@@@@@@@@@@@@@@",
"@@@$$$$$$$$$$@@@",
"@@$++++++++++$@@",
"@$##%%%%%%%%##$@",
"@$#%%oooooo%%#$@",
"@$OXXXXXXXXXXO$@",
"@@+.        .+@@",
"@@@+.      .+@@@",
"@@@@++++++++@@@@",
"@@@@@@@@@@@@@@@@",
"@@@@@@@@@@@@@@@@",
"@@@@@@@@@@@@@@@@"
};
