/* XPM */
static char *_c7b9ec13a064fe8f14fe771d7f6af5d3rPvxFuBAyLzmyoZ[] = {
/* columns rows colors chars-per-pixel */
"16 16 15 1 ",
"  c #002B00",
". c #2C251B",
"X c #393939",
"o c #633E0D",
"O c #4E342E",
"+ c #005300",
"@ c #973724",
"# c #FF5722",
"$ c #C67639",
"% c #837052",
"& c #02A600",
"* c #00DF00",
"= c yellow",
"- c #A99576",
"; c white",
/* pixels */
"@@@@@@@@@@@@@@@@",
"@@@@@++++@@@@@@@",
"@@@@+&**++@@@@@@",
"@@@ +***& @@@@@@",
"@@@ &++&&&&+ @@@",
"@@@ + -&*+  @$@@",
"@@ &&X;*& @##$$@",
"@@  &&**+  @@@@@",
"@@@@ &*&.-. @@@@",
"@@@#    %.+ @@@@",
"@@@ + =%. ** @@@",
"@@$ + o%. *&$@@@",
"@@@$$$$-% $$O@@@",
"@@@@OO$$$$OO@@@@",
"@@@@@@@OOO@@@@@@",
"@@@@@@@@@@@@@@@@"
};
