/* XPM */
static char *_a423b810c8f4f1a80195218559446ee[] = {
/* columns rows colors chars-per-pixel */
"64 64 23 1 ",
"  c #002B00",
". c #082A04",
"X c #003101",
"o c #023C01",
"O c #2C251B",
"+ c #383022",
"@ c #393939",
"# c #633E0D",
"$ c #4E342E",
"% c #005300",
"& c #006D00",
"* c #736248",
"= c #973724",
"- c #FF5722",
"; c #C67639",
": c #837052",
"> c #02A600",
", c #00B100",
"< c #00DF00",
"1 c #9B8B4E",
"2 c #97856A",
"3 c #A28E6F",
"4 c white",
/* pixels */
"================================================================",
"================================================================",
"================================================================",
"================================================================",
"================================================================",
"================================================================",
"================================================================",
"================================================================",
"================;;;;;;;;====%%%%%%%%%%%%%%%%====================",
"================;;;;;;;;====%%%%%%%%%%%%%%%%====================",
"================;;;;;;;;====%%%%%%%%%%%%%%%%====================",
"================;;;;;;;;====%%%%%%%%%%%%%%%%====================",
"====================;;;;%%%%>>>><<<<<<<<>>>>%%%%================",
"====================;;;;%%%%>>>><<<<<<<<>>>>%%%%================",
"====================;;;;%%%%>>>><<<<<<<<>>>>%%%%================",
"====================;;;;%%%%>>>><<<<<<<<>>>>%%%%================",
"========================oooo<<<<<<<<<<<<<<<<%%%%================",
"========================oooo<<<<<<<<<<<<<<<<%%%%================",
"========================oooo<<<<<<<<<<<<<<<<%%%%================",
"========================oooo<<<<<<<<<<<<<<<<%%%%================",
"================        %%%%>>>><<<<<<<<>>>>>>>>====;;;;========",
"================        %%%%>>>><<<<<<<<>>>>>>>>====;;;;========",
"================        %%%%>>>><<<<<<<<>>>>>>>>====;;;;========",
"================        %%%%>>>><<<<<<<<>>>>>>>>====;;;;========",
"============    %%%%>>>>>>>>%%%%>>>>%%%%%%%%>>>>----;;;;;;;;====",
"============    %%%%>>>>>>>>%%%%>>>>%%%%%%%%>>>>----;;;;;;;;====",
"============    %%%%>>>>>>>>%%%%>>>>%%%%%%%%>>>>----;;;;;;;;====",
"============    %%%%>>>>>>>>%%%%>>>>%%%%%%%%>>>>----;;;;;;;;====",
"========================oooo<<<<<<<<4444@@@@>>>>    ============",
"========================oooo<<<<<<<<4444@@@@>>>>    ============",
"========================oooo<<<<<<<<4444@@@@>>>>    ============",
"========================oooo<<<<<<<<4444@@@@>>>>    ============",
"====================    XXXX>>>><<<<<<<<>>>>>>>>    ============",
"====================    XXXX>>>><<<<<<<<>>>>>>>>    ============",
"====================    XXXX>>>><<<<<<<<>>>>>>>>    ============",
"====================    XXXX>>>><<<<<<<<>>>>>>>>    ============",
"============----    OOOO2222    >>>><<<<>>>>    ================",
"============----    OOOO2222    >>>><<<<>>>>    ================",
"============----    OOOO2222    >>>><<<<>>>>    ================",
"============----    OOOO2222    >>>><<<<>>>>    ================",
"============;;;;    %%%%++++OOOO                ================",
"============;;;;    %%%%++++OOOO                ================",
"============;;;;    %%%%++++OOOO                ================",
"============;;;;    %%%%++++OOOO                ================",
"========;;;;    &&&&,,,,....****33331111    XXXX;;;;============",
"========;;;;    &&&&,,,,....****33331111    XXXX;;;;============",
"========;;;;    &&&&,,,,....****33331111    XXXX;;;;============",
"========;;;;    &&&&,,,,....****33331111    XXXX;;;;============",
"============;;;;;;;;;;;;;;;;OOOO::::####;;;;;;;;$$$$============",
"============;;;;;;;;;;;;;;;;OOOO::::####;;;;;;;;$$$$============",
"============;;;;;;;;;;;;;;;;OOOO::::####;;;;;;;;$$$$============",
"============;;;;;;;;;;;;;;;;OOOO::::####;;;;;;;;$$$$============",
"================$$$$$$$$;;;;;;;;;;;;;;;;$$$$$$$$================",
"================$$$$$$$$;;;;;;;;;;;;;;;;$$$$$$$$================",
"================$$$$$$$$;;;;;;;;;;;;;;;;$$$$$$$$================",
"================$$$$$$$$;;;;;;;;;;;;;;;;$$$$$$$$================",
"============================$$$$$$$$$$$$========================",
"============================$$$$$$$$$$$$========================",
"============================$$$$$$$$$$$$========================",
"============================$$$$$$$$$$$$========================",
"================================================================",
"================================================================",
"================================================================",
"================================================================"
};
