/* XPM */
static char *f455975a49cb41409bb3e9ef6c03776b2DS9Ygk1vW1OjY0C[] = {
/* columns rows colors chars-per-pixel */
"16 16 23 1 ",
"  c #002B00",
". c #082A04",
"X c #003101",
"o c #023C01",
"O c #2C251B",
"+ c #383022",
"@ c #393939",
"# c #633E0D",
"$ c #4E342E",
"% c #005300",
"& c #006D00",
"* c #736248",
"= c #973724",
"- c #FF5722",
"; c #C67639",
": c #837052",
"> c #02A600",
", c #00B100",
"< c #00DF00",
"1 c #9B8B4E",
"2 c #97856A",
"3 c #A28E6F",
"4 c white",
/* pixels */
"================",
"================",
"====;;=%%%%=====",
"=====;%><<>%====",
"======o<<<<%====",
"====  %><<>>=;==",
"=== %>>%>%%>-;;=",
"======o<<4@> ===",
"===== X><<>> ===",
"===- O2 ><> ====",
"===; %+O    ====",
"==; &,.*31 X;===",
"===;;;;O:#;;$===",
"====$$;;;;$$====",
"=======$$$======",
"================"
};
