/* XPM */
static char *_be2cbeb35c1493cf30b222d7ae59656ePXm6RG6qpsB82k8[] = {
/* columns rows colors chars-per-pixel */
"16 16 8 1 ",
"  c #2D1836",
". c #3A1E3B",
"X c #631F2F",
"o c #442745",
"O c #523040",
"+ c #633B43",
"@ c #973724",
"# c #C67639",
/* pixels */
"@@@@@@@@@@@@@@@@",
"@@@@@@@@@@@@@@@@",
"@@@@@@@@@@@@@@@@",
"@@@@@@@@@@@@@@@@",
"@@@@@o  o@@@@@@@",
"@@@# OOOO @@@@@@",
"@@# OOOOOO @@@@@",
"@@# OOOOOOOo@@@@",
"@@# +OOOOOO @@@@",
"@@#oO++OOOOo@@@@",
"@@#o.O+++O.o#@@@",
"@@##o.ooo.o##@@@",
"@@@##ooooo##@@@@",
"@@@XX#####XX@@@@",
"@@@@XXXXXXX@@@@@",
"@@@@@@@@@@@@@@@@"
};
