/* XPM */
static char *_e684ca3c67a4d0dac2913a2607d3bee[] = {
/* columns rows colors chars-per-pixel */
"64 64 8 1 ",
"  c #2D1836",
". c #3A1E3B",
"X c #631F2F",
"o c #442745",
"O c #523040",
"+ c #633B43",
"@ c #973724",
"# c #C67639",
/* pixels */
"@@@@@@@@@@@@@@@@@@@@@@@@@@@@@@@@@@@@@@@@@@@@@@@@@@@@@@@@@@@@@@@@",
"@@@@@@@@@@@@@@@@@@@@@@@@@@@@@@@@@@@@@@@@@@@@@@@@@@@@@@@@@@@@@@@@",
"@@@@@@@@@@@@@@@@@@@@@@@@@@@@@@@@@@@@@@@@@@@@@@@@@@@@@@@@@@@@@@@@",
"@@@@@@@@@@@@@@@@@@@@@@@@@@@@@@@@@@@@@@@@@@@@@@@@@@@@@@@@@@@@@@@@",
"@@@@@@@@@@@@@@@@@@@@@@@@@@@@@@@@@@@@@@@@@@@@@@@@@@@@@@@@@@@@@@@@",
"@@@@@@@@@@@@@@@@@@@@@@@@@@@@@@@@@@@@@@@@@@@@@@@@@@@@@@@@@@@@@@@@",
"@@@@@@@@@@@@@@@@@@@@@@@@@@@@@@@@@@@@@@@@@@@@@@@@@@@@@@@@@@@@@@@@",
"@@@@@@@@@@@@@@@@@@@@@@@@@@@@@@@@@@@@@@@@@@@@@@@@@@@@@@@@@@@@@@@@",
"@@@@@@@@@@@@@@@@@@@@@@@@@@@@@@@@@@@@@@@@@@@@@@@@@@@@@@@@@@@@@@@@",
"@@@@@@@@@@@@@@@@@@@@@@@@@@@@@@@@@@@@@@@@@@@@@@@@@@@@@@@@@@@@@@@@",
"@@@@@@@@@@@@@@@@@@@@@@@@@@@@@@@@@@@@@@@@@@@@@@@@@@@@@@@@@@@@@@@@",
"@@@@@@@@@@@@@@@@@@@@@@@@@@@@@@@@@@@@@@@@@@@@@@@@@@@@@@@@@@@@@@@@",
"@@@@@@@@@@@@@@@@@@@@@@@@@@@@@@@@@@@@@@@@@@@@@@@@@@@@@@@@@@@@@@@@",
"@@@@@@@@@@@@@@@@@@@@@@@@@@@@@@@@@@@@@@@@@@@@@@@@@@@@@@@@@@@@@@@@",
"@@@@@@@@@@@@@@@@@@@@@@@@@@@@@@@@@@@@@@@@@@@@@@@@@@@@@@@@@@@@@@@@",
"@@@@@@@@@@@@@@@@@@@@@@@@@@@@@@@@@@@@@@@@@@@@@@@@@@@@@@@@@@@@@@@@",
"@@@@@@@@@@@@@@@@@@@@oooo        oooo@@@@@@@@@@@@@@@@@@@@@@@@@@@@",
"@@@@@@@@@@@@@@@@@@@@oooo        oooo@@@@@@@@@@@@@@@@@@@@@@@@@@@@",
"@@@@@@@@@@@@@@@@@@@@oooo        oooo@@@@@@@@@@@@@@@@@@@@@@@@@@@@",
"@@@@@@@@@@@@@@@@@@@@oooo        oooo@@@@@@@@@@@@@@@@@@@@@@@@@@@@",
"@@@@@@@@@@@@####    OOOOOOOOOOOOOOOO    @@@@@@@@@@@@@@@@@@@@@@@@",
"@@@@@@@@@@@@####    OOOOOOOOOOOOOOOO    @@@@@@@@@@@@@@@@@@@@@@@@",
"@@@@@@@@@@@@####    OOOOOOOOOOOOOOOO    @@@@@@@@@@@@@@@@@@@@@@@@",
"@@@@@@@@@@@@####    OOOOOOOOOOOOOOOO    @@@@@@@@@@@@@@@@@@@@@@@@",
"@@@@@@@@####    OOOOOOOOOOOOOOOOOOOOOOOO    @@@@@@@@@@@@@@@@@@@@",
"@@@@@@@@####    OOOOOOOOOOOOOOOOOOOOOOOO    @@@@@@@@@@@@@@@@@@@@",
"@@@@@@@@####    OOOOOOOOOOOOOOOOOOOOOOOO    @@@@@@@@@@@@@@@@@@@@",
"@@@@@@@@####    OOOOOOOOOOOOOOOOOOOOOOOO    @@@@@@@@@@@@@@@@@@@@",
"@@@@@@@@####    OOOOOOOOOOOOOOOOOOOOOOOOOOOOoooo@@@@@@@@@@@@@@@@",
"@@@@@@@@####    OOOOOOOOOOOOOOOOOOOOOOOOOOOOoooo@@@@@@@@@@@@@@@@",
"@@@@@@@@####    OOOOOOOOOOOOOOOOOOOOOOOOOOOOoooo@@@@@@@@@@@@@@@@",
"@@@@@@@@####    OOOOOOOOOOOOOOOOOOOOOOOOOOOOoooo@@@@@@@@@@@@@@@@",
"@@@@@@@@####    ++++OOOOOOOOOOOOOOOOOOOOOOOO    @@@@@@@@@@@@@@@@",
"@@@@@@@@####    ++++OOOOOOOOOOOOOOOOOOOOOOOO    @@@@@@@@@@@@@@@@",
"@@@@@@@@####    ++++OOOOOOOOOOOOOOOOOOOOOOOO    @@@@@@@@@@@@@@@@",
"@@@@@@@@####    ++++OOOOOOOOOOOOOOOOOOOOOOOO    @@@@@@@@@@@@@@@@",
"@@@@@@@@####ooooOOOO++++++++OOOOOOOOOOOOOOOOoooo@@@@@@@@@@@@@@@@",
"@@@@@@@@####ooooOOOO++++++++OOOOOOOOOOOOOOOOoooo@@@@@@@@@@@@@@@@",
"@@@@@@@@####ooooOOOO++++++++OOOOOOOOOOOOOOOOoooo@@@@@@@@@@@@@@@@",
"@@@@@@@@####ooooOOOO++++++++OOOOOOOOOOOOOOOOoooo@@@@@@@@@@@@@@@@",
"@@@@@@@@####oooo....OOOO++++++++++++OOOO....oooo####@@@@@@@@@@@@",
"@@@@@@@@####oooo....OOOO++++++++++++OOOO....oooo####@@@@@@@@@@@@",
"@@@@@@@@####oooo....OOOO++++++++++++OOOO....oooo####@@@@@@@@@@@@",
"@@@@@@@@####oooo....OOOO++++++++++++OOOO....oooo####@@@@@@@@@@@@",
"@@@@@@@@########oooo....oooooooooooo....oooo########@@@@@@@@@@@@",
"@@@@@@@@########oooo....oooooooooooo....oooo########@@@@@@@@@@@@",
"@@@@@@@@########oooo....oooooooooooo....oooo########@@@@@@@@@@@@",
"@@@@@@@@########oooo....oooooooooooo....oooo########@@@@@@@@@@@@",
"@@@@@@@@@@@@########oooooooooooooooooooo########@@@@@@@@@@@@@@@@",
"@@@@@@@@@@@@########oooooooooooooooooooo########@@@@@@@@@@@@@@@@",
"@@@@@@@@@@@@########oooooooooooooooooooo########@@@@@@@@@@@@@@@@",
"@@@@@@@@@@@@########oooooooooooooooooooo########@@@@@@@@@@@@@@@@",
"@@@@@@@@@@@@XXXXXXXX####################XXXXXXXX@@@@@@@@@@@@@@@@",
"@@@@@@@@@@@@XXXXXXXX####################XXXXXXXX@@@@@@@@@@@@@@@@",
"@@@@@@@@@@@@XXXXXXXX####################XXXXXXXX@@@@@@@@@@@@@@@@",
"@@@@@@@@@@@@XXXXXXXX####################XXXXXXXX@@@@@@@@@@@@@@@@",
"@@@@@@@@@@@@@@@@XXXXXXXXXXXXXXXXXXXXXXXXXXXX@@@@@@@@@@@@@@@@@@@@",
"@@@@@@@@@@@@@@@@XXXXXXXXXXXXXXXXXXXXXXXXXXXX@@@@@@@@@@@@@@@@@@@@",
"@@@@@@@@@@@@@@@@XXXXXXXXXXXXXXXXXXXXXXXXXXXX@@@@@@@@@@@@@@@@@@@@",
"@@@@@@@@@@@@@@@@XXXXXXXXXXXXXXXXXXXXXXXXXXXX@@@@@@@@@@@@@@@@@@@@",
"@@@@@@@@@@@@@@@@@@@@@@@@@@@@@@@@@@@@@@@@@@@@@@@@@@@@@@@@@@@@@@@@",
"@@@@@@@@@@@@@@@@@@@@@@@@@@@@@@@@@@@@@@@@@@@@@@@@@@@@@@@@@@@@@@@@",
"@@@@@@@@@@@@@@@@@@@@@@@@@@@@@@@@@@@@@@@@@@@@@@@@@@@@@@@@@@@@@@@@",
"@@@@@@@@@@@@@@@@@@@@@@@@@@@@@@@@@@@@@@@@@@@@@@@@@@@@@@@@@@@@@@@@"
};
